ply
format ascii 1.0
comment this file should trigger an error as it contains several vertices at the same location
comment the file was originally created using blender http://www.blender.org
element vertex 52
property float x
property float y
property float z
property float nx
property float ny
property float nz
element face 20
property list uchar uint vertex_indices
end_header
0.000000 0.000000 0.000000 1.000000 0.000000 0.000000
0.000000 1.000000 0.000000 1.000000 0.000000 0.000000
0.000000 1.000000 1.000000 1.000000 0.000000 0.000000
0.000000 0.000000 1.000000 1.000000 0.000000 0.000000
0.000000 1.000000 0.000000 0.000000 1.000000 0.000000
-2.000000 1.000000 0.000000 0.000000 1.000000 0.000000
-2.000000 1.000000 1.000000 0.000000 1.000000 0.000000
0.000000 1.000000 1.000000 0.000000 1.000000 0.000000
-2.000000 1.000000 1.000000 0.000000 0.000000 0.000000
1.000000 1.000000 1.000000 0.000000 0.000000 0.000000
0.000000 1.000000 1.000000 0.000000 0.000000 0.000000
-2.000000 2.000000 1.000000 0.000000 0.000000 -1.000000
1.000000 2.000000 1.000000 0.000000 0.000000 -1.000000
1.000000 1.000000 1.000000 0.000000 0.000000 -1.000000
-2.000000 1.000000 1.000000 -0.000000 -0.000000 -1.000000
-2.000000 2.000000 0.000000 0.000000 -1.000000 -0.000000
1.000000 2.000000 0.000000 0.000000 -1.000000 -0.000000
1.000000 2.000000 1.000000 0.000000 -1.000000 -0.000000
-2.000000 2.000000 1.000000 0.000000 -1.000000 -0.000000
0.000000 0.000000 0.000000 -0.000000 0.000000 1.000000
1.000000 1.000000 0.000000 -0.000000 0.000000 1.000000
0.000000 1.000000 0.000000 -0.000000 0.000000 1.000000
2.000000 0.000000 0.000000 -0.000000 0.000000 1.000000
2.000000 1.000000 0.000000 -0.000000 0.000000 1.000000
2.000000 1.000000 0.000000 -1.000000 0.000000 -0.000000
2.000000 0.000000 0.000000 -1.000000 0.000000 -0.000000
2.000000 0.000000 1.000000 -1.000000 0.000000 -0.000000
2.000000 1.000000 1.000000 -1.000000 0.000000 -0.000000
2.000000 0.000000 0.000000 0.000000 1.000000 0.000000
0.000000 0.000000 0.000000 0.000000 1.000000 0.000000
0.000000 0.000000 1.000000 0.000000 1.000000 0.000000
2.000000 0.000000 1.000000 0.000000 1.000000 0.000000
-2.000000 1.000000 0.000000 1.000000 0.000000 0.000000
-2.000000 2.000000 0.000000 1.000000 0.000000 0.000000
-2.000000 2.000000 1.000000 1.000000 0.000000 0.000000
-2.000000 1.000000 1.000000 1.000000 0.000000 0.000000
1.000000 1.000000 0.000000 0.000000 -1.000000 -0.000000
2.000000 1.000000 0.000000 0.000000 -1.000000 -0.000000
2.000000 1.000000 1.000000 0.000000 -1.000000 -0.000000
1.000000 1.000000 1.000000 0.000000 -1.000000 -0.000000
1.000000 2.000000 0.000000 -1.000000 0.000000 -0.000000
1.000000 1.000000 0.000000 -1.000000 0.000000 -0.000000
1.000000 1.000000 1.000000 -1.000000 0.000000 -0.000000
1.000000 2.000000 1.000000 -1.000000 0.000000 -0.000000
-2.000000 1.000000 0.000000 -0.000000 0.000000 1.000000
1.000000 2.000000 0.000000 -0.000000 0.000000 1.000000
-2.000000 2.000000 0.000000 -0.000000 0.000000 1.000000
0.000000 0.000000 1.000000 -0.000000 0.000000 -1.000000
2.000000 1.000000 1.000000 -0.000000 0.000000 -1.000000
2.000000 0.000000 1.000000 -0.000000 0.000000 -1.000000
2.000000 1.000000 1.000000 0.000000 0.000000 0.000000
0.000000 1.000000 1.000000 -0.000000 -0.000000 -1.000000
4 0 1 2 3
4 4 5 6 7
3 8 9 10
3 11 12 13
3 14 11 13
4 15 16 17 18
3 19 20 21
3 22 23 20
3 19 22 20
4 24 25 26 27
4 28 29 30 31
4 32 33 34 35
4 36 37 38 39
4 40 41 42 43
3 44 45 46
3 21 20 45
3 44 21 45
3 47 48 49
3 10 9 50
3 47 51 48
